<?xml version="1.0" standalone="no"?>
<!DOCTYPE svg PUBLIC "-//W3C//DTD SVG 20010904//EN"
 "http://www.w3.org/TR/2001/REC-SVG-20010904/DTD/svg10.dtd">
<svg version="1.0" xmlns="http://www.w3.org/2000/svg"
 width="700.000000pt" height="700.000000pt" viewBox="0 0 700.000000 700.000000"
 preserveAspectRatio="xMidYMid meet">
<metadata>
Created by potrace 1.11, written by Peter Selinger 2001-2013
</metadata>
<g transform="translate(0.000000,700.000000) scale(0.100000,-0.100000)"
fill="#000000" stroke="none">
<path d="M2065 5818 c-209 -23 -491 -100 -675 -184 -745 -339 -1242 -995
-1367 -1804 -24 -160 -24 -500 0 -660 104 -671 462 -1237 1017 -1609 546 -366
1233 -484 1870 -321 174 44 382 125 528 205 l62 35 63 -35 c145 -80 353 -161
527 -205 399 -102 857 -92 1248 26 790 239 1400 883 1596 1685 47 193 60 317
60 549 0 385 -69 686 -234 1026 -274 563 -767 993 -1367 1190 -587 193 -1248
141 -1790 -141 l-102 -53 -93 48 c-254 132 -508 210 -798 246 -125 15 -417 17
-545 2z m2815 -288 c550 -57 1059 -341 1398 -779 699 -905 525 -2197 -389
-2884 -611 -460 -1431 -536 -2123 -197 -322 157 -607 409 -806 712 -164 247
-273 541 -316 845 -25 180 -15 504 21 673 85 404 276 760 559 1042 263 263
537 420 941 539 41 12 250 48 305 52 99 8 320 6 410 -3z"/>
<path d="M4515 4661 c-3 -6 -156 -441 -341 -968 -184 -527 -344 -982 -354
-1010 l-20 -53 218 0 218 0 59 180 59 180 410 -2 409 -3 60 -177 59 -178 219
0 218 0 -55 158 c-30 86 -191 544 -357 1017 l-302 860 -247 3 c-153 1 -249 -1
-253 -7z m390 -872 c74 -222 135 -407 135 -411 0 -5 -124 -8 -275 -8 -151 0
-275 3 -275 8 0 12 275 820 278 817 1 -1 63 -184 137 -406z"/>
</g>
</svg>
