<?xml version="1.0" standalone="no"?>
<!DOCTYPE svg PUBLIC "-//W3C//DTD SVG 20010904//EN"
 "http://www.w3.org/TR/2001/REC-SVG-20010904/DTD/svg10.dtd">
<svg version="1.0" xmlns="http://www.w3.org/2000/svg"
 width="904.000000pt" height="904.000000pt" viewBox="0 0 904.000000 904.000000"
 preserveAspectRatio="xMidYMid meet">
<metadata>
Created by potrace 1.11, written by Peter Selinger 2001-2013
</metadata>
<g transform="translate(0.000000,904.000000) scale(0.100000,-0.100000)"
fill="#000000" stroke="none">
<path d="M6158 7155 c-1 -1 -61 -6 -133 -10 -71 -3 -155 -8 -185 -11 -95 -7
-184 -14 -225 -18 -22 -3 -67 -7 -100 -10 -57 -6 -141 -15 -195 -22 -14 -2
-50 -6 -80 -10 -82 -9 -95 -11 -95 -14 0 -1 -18 -3 -40 -5 -37 -2 -83 -9 -130
-19 -11 -2 -40 -7 -65 -10 -25 -3 -56 -8 -70 -11 -14 -3 -54 -10 -89 -15 -35
-6 -95 -18 -135 -26 -39 -9 -87 -18 -106 -20 -33 -4 -155 -30 -155 -34 0 -1
-9 -3 -20 -4 -11 -1 -38 -6 -60 -11 -22 -4 -45 -9 -52 -11 -7 -1 -43 -10 -80
-19 -37 -10 -77 -19 -88 -21 -39 -7 -62 -13 -200 -49 -77 -20 -149 -38 -160
-41 -11 -2 -99 -26 -195 -54 -96 -28 -182 -52 -190 -54 -61 -16 -331 -100
-485 -151 -60 -20 -114 -38 -120 -39 -5 -1 -14 -4 -20 -7 -9 -6 -78 -30 -100
-35 -5 -2 -55 -19 -110 -39 -55 -20 -127 -45 -160 -56 -33 -11 -69 -25 -80
-29 -38 -17 -250 -98 -275 -105 -14 -4 -29 -11 -35 -15 -5 -4 -28 -13 -50 -20
-22 -7 -44 -16 -50 -20 -14 -10 -153 -62 -161 -60 -4 1 -10 -2 -13 -7 -3 -4
-33 -19 -66 -32 -74 -29 -182 -75 -255 -108 -30 -14 -66 -29 -79 -35 -36 -13
-325 -147 -406 -188 l-70 -35 -76 -180 c-42 -99 -82 -191 -87 -205 -6 -14 -16
-37 -21 -53 -6 -15 -19 -46 -30 -70 -55 -123 -61 -143 -33 -132 37 15 1033
353 1057 359 12 3 41 14 74 27 13 5 25 8 28 6 2 -3 -28 -68 -66 -146 -38 -78
-70 -144 -71 -146 -1 -7 -130 -279 -268 -565 -109 -228 -145 -305 -147 -310
-1 -3 -28 -61 -62 -130 -33 -69 -72 -152 -87 -185 -16 -33 -32 -67 -37 -75 -5
-8 -13 -24 -18 -35 -18 -41 -167 -354 -361 -760 -27 -55 -70 -147 -98 -205
-98 -207 -179 -377 -315 -660 -33 -69 -81 -171 -108 -228 l-48 -102 583 0 584
0 15 33 c8 17 41 86 72 152 31 66 64 136 73 155 9 19 20 38 25 41 5 3 8 9 8
13 -2 9 48 116 207 446 35 74 80 169 99 210 20 41 66 138 103 215 37 77 87
181 110 230 23 50 68 144 100 210 31 66 75 158 97 205 23 47 73 151 112 232
39 81 71 149 71 152 0 3 8 19 19 36 l18 31 51 -98 c27 -54 61 -118 74 -143 68
-125 92 -166 103 -180 7 -8 15 -22 18 -30 19 -44 239 -382 284 -435 5 -5 22
-28 38 -50 17 -22 32 -42 36 -45 3 -3 12 -14 20 -26 36 -54 114 -139 229 -252
148 -147 132 -132 245 -221 50 -39 95 -75 101 -80 34 -28 254 -171 263 -171 6
0 11 -4 11 -9 0 -5 8 -11 18 -15 9 -3 49 -24 87 -46 69 -39 245 -128 337 -169
90 -40 336 -136 378 -146 3 -1 12 -5 20 -8 42 -17 380 -109 450 -122 14 -3 36
-7 50 -10 29 -6 161 -32 205 -40 17 -2 50 -7 75 -11 25 -3 56 -7 70 -10 14 -2
50 -7 80 -9 30 -3 71 -8 90 -10 151 -20 792 -27 1050 -12 172 11 260 17 310
22 25 3 74 7 110 10 36 3 81 8 100 11 19 2 53 7 75 9 175 18 375 50 575 92
106 22 104 21 110 23 3 1 10 3 15 5 6 1 15 3 20 5 6 1 15 3 20 4 6 1 30 8 55
15 25 7 51 14 58 15 37 6 33 25 -22 110 -31 47 -56 90 -56 96 0 5 -3 10 -8 10
-4 0 -18 20 -31 45 -21 41 -26 44 -55 40 -17 -3 -51 -7 -76 -10 -25 -2 -54 -6
-65 -9 -11 -2 -49 -7 -85 -11 -36 -4 -76 -9 -90 -10 -370 -42 -1019 -52 -1285
-21 -22 3 -67 8 -100 11 -33 3 -76 8 -95 10 -19 3 -54 7 -77 10 -48 6 -107 14
-143 21 -14 2 -41 7 -60 10 -19 2 -46 7 -60 10 -14 2 -38 7 -55 10 -16 2 -43
9 -60 14 -16 4 -47 11 -67 15 -21 3 -95 22 -165 41 -71 20 -135 37 -143 39
-24 6 -163 54 -185 64 -11 5 -58 24 -105 42 -208 81 -398 190 -585 337 -143
112 -320 293 -438 447 -54 71 -107 148 -107 155 0 6 -4 10 -10 10 -5 0 -10 7
-10 15 0 8 -4 15 -10 15 -5 0 -10 5 -10 10 0 6 -11 27 -23 48 -41 64 -54 87
-54 92 0 3 -14 28 -30 55 -16 28 -32 57 -35 65 -3 8 -18 41 -32 73 l-26 57 23
-4 c12 -2 60 -13 107 -24 109 -26 234 -51 285 -57 49 -6 103 -14 135 -20 14
-3 57 -8 95 -11 39 -3 84 -8 100 -10 236 -26 865 -25 1096 2 24 2 62 7 84 9
88 9 141 15 160 19 11 2 43 7 70 10 28 4 111 18 185 31 74 13 150 27 169 30
19 3 37 7 40 9 3 2 24 7 46 10 22 4 47 8 55 11 8 2 26 6 40 9 14 2 52 11 85
19 33 9 71 18 85 21 28 6 176 46 260 71 30 9 62 18 72 20 63 14 401 135 533
190 203 85 492 226 552 271 12 9 23 15 25 13 3 -2 237 153 268 178 8 7 42 33
75 58 190 146 403 376 513 555 22 36 105 191 107 200 1 3 9 23 19 45 29 67 64
177 73 230 9 60 9 258 -1 300 -68 287 -280 494 -699 680 -43 19 -298 104 -325
108 -9 1 -23 6 -29 10 -7 5 -13 6 -13 3 0 -2 -15 0 -32 5 -18 6 -44 12 -58 15
-14 2 -36 7 -50 11 -40 10 -52 12 -145 28 -11 2 -31 6 -45 9 -45 10 -202 32
-290 41 -14 2 -43 5 -65 8 -22 3 -80 9 -130 13 -49 3 -108 8 -130 10 -49 5
-852 14 -857 9z m415 -759 c113 -8 199 -15 222 -20 22 -4 108 -17 140 -21 11
-2 40 -8 65 -15 25 -7 50 -13 55 -15 73 -16 216 -73 227 -89 4 -6 8 -7 8 -3 0
13 81 -46 123 -90 114 -117 133 -266 61 -480 -48 -144 -129 -263 -273 -400
-47 -46 -89 -83 -93 -83 -3 0 -24 -15 -46 -32 -56 -46 -233 -153 -327 -197
-27 -13 -79 -38 -115 -54 -36 -17 -69 -30 -74 -29 -4 2 -13 -2 -20 -7 -25 -21
-381 -143 -381 -130 0 1 -9 -3 -21 -9 -11 -6 -33 -13 -48 -16 -15 -3 -50 -12
-79 -20 -29 -8 -63 -17 -77 -20 -14 -3 -77 -17 -140 -31 -63 -14 -128 -27
-145 -29 -16 -3 -41 -7 -55 -10 -14 -3 -43 -7 -65 -11 -22 -3 -67 -10 -100
-15 -33 -5 -80 -12 -105 -14 -25 -3 -72 -8 -105 -12 -292 -32 -713 -36 -975
-9 -19 2 -69 6 -110 10 -41 4 -86 8 -100 10 -14 2 -52 6 -85 10 -33 4 -67 8
-75 10 -8 1 -40 6 -70 10 -83 10 -391 60 -436 70 -12 3 -39 7 -60 10 -21 3
-70 13 -109 21 -38 9 -81 17 -95 19 -14 2 -36 7 -50 10 -27 7 -43 10 -110 24
-53 11 -73 15 -165 36 -134 31 -188 44 -191 48 -2 2 12 35 31 73 68 138 155
326 155 335 0 5 4 9 10 9 5 0 9 3 8 8 -2 4 18 50 43 102 25 52 70 146 100 209
30 63 79 164 109 225 l55 111 95 28 c52 16 113 33 135 38 61 16 67 18 105 28
53 15 154 39 181 45 13 2 31 7 39 10 8 3 26 8 40 10 14 3 77 17 140 31 63 15
124 28 135 31 11 2 43 8 70 14 28 6 61 13 75 15 14 3 36 8 50 10 14 2 70 13
125 24 55 11 116 23 135 26 19 3 43 8 52 11 9 3 32 6 50 8 27 3 184 29 248 41
14 3 128 19 210 31 19 2 62 9 95 14 33 5 80 12 105 14 85 9 155 17 190 21 57
8 111 13 180 20 36 3 85 8 110 10 54 7 162 13 329 20 69 3 126 6 127 8 4 4
386 -2 467 -7z"/>
</g>
</svg>
